<svg width="64" height="64" viewBox="0 0 64 64" xmlns="http://www.w3.org/2000/svg">
  <rect width="64" height="64" rx="12" fill="#2D1B69"/>
  <rect x="5" y="5" width="54" height="54" rx="9" fill="#3B2382"/>
  <rect x="29" y="13" width="2" height="39" rx="1" fill="#7C5CBF" opacity="0.6"/>
  <path d="M12 17 Q16 14 20 17 L20 47 Q16 44 12 47 Z" fill="#F5EDD8"/>
  <path d="M20 17 Q24 14 30 16 L30 47 Q24 45 20 47 Z" fill="#EDE0C4"/>
  <path d="M30 16 Q36 14 42 17 L42 47 Q36 45 30 47 Z" fill="#F5EDD8"/>
  <path d="M42 17 Q46 14 50 17 L50 47 Q46 44 42 47 Z" fill="#EDE0C4"/>
  <rect x="15" y="21" width="10" height="1.5" rx="0.75" fill="#B8A88A" opacity="0.7"/>
  <rect x="15" y="25" width="8" height="1.5" rx="0.75" fill="#B8A88A" opacity="0.7"/>
  <rect x="15" y="29" width="9" height="1.5" rx="0.75" fill="#B8A88A" opacity="0.7"/>
  <rect x="33" y="21" width="10" height="1.5" rx="0.75" fill="#B8A88A" opacity="0.7"/>
  <rect x="33" y="25" width="7" height="1.5" rx="0.75" fill="#B8A88A" opacity="0.7"/>
  <rect x="33" y="29" width="9" height="1.5" rx="0.75" fill="#B8A88A" opacity="0.7"/>
  <polygon points="38,5 38,20 42,16 46,20 46,5" fill="#E63946"/>
  <polygon points="38,5 46,5 46,6 38,6" fill="#C1121F"/>
</svg>
